<mxfile host="app.diagrams.net" modified="2023-12-27T23:41:27.273Z" agent="Mozilla/5.0 (Windows NT 10.0; Win64; x64) AppleWebKit/537.36 (KHTML, like Gecko) Chrome/120.0.0.0 Safari/537.36" etag="dJbxhLkO41q_JzGfM3l9" version="22.1.15" type="device">
  <diagram name="Seite-1" id="ttz3eF38ohwRJTj0C9SD">
    <mxGraphModel dx="2048" dy="1821" grid="1" gridSize="10" guides="1" tooltips="1" connect="1" arrows="1" fold="1" page="1" pageScale="1" pageWidth="827" pageHeight="1169" math="0" shadow="0">
      <root>
        <mxCell id="0" />
        <mxCell id="1" parent="0" />
        <mxCell id="Sk7vuej4KPGZEMky0W2_-24" value="" style="ellipse;shape=cloud;whiteSpace=wrap;html=1;fillColor=none;" vertex="1" parent="1">
          <mxGeometry y="570" width="520" height="360" as="geometry" />
        </mxCell>
        <mxCell id="RX1dDcOHe3MtqewqTYPT-1" value="Postgres User API&lt;br&gt;(5432)" style="shape=cylinder3;whiteSpace=wrap;html=1;boundedLbl=1;backgroundOutline=1;size=15;fillColor=#bac8d3;strokeColor=#23445d;" parent="1" vertex="1">
          <mxGeometry x="418.13" y="195" width="67.5" height="90" as="geometry" />
        </mxCell>
        <mxCell id="RX1dDcOHe3MtqewqTYPT-2" value="Postgres News API&lt;br&gt;(5433)" style="shape=cylinder3;whiteSpace=wrap;html=1;boundedLbl=1;backgroundOutline=1;size=15;fillColor=#dae8fc;strokeColor=#6c8ebf;" parent="1" vertex="1">
          <mxGeometry x="418.13" y="338.25" width="69.38" height="92.5" as="geometry" />
        </mxCell>
        <mxCell id="RX1dDcOHe3MtqewqTYPT-3" value="FH LDAP" style="shape=cylinder3;whiteSpace=wrap;html=1;boundedLbl=1;backgroundOutline=1;size=15;fillColor=#e1d5e7;strokeColor=#9673a6;" parent="1" vertex="1">
          <mxGeometry x="216.25" y="40" width="67.5" height="90" as="geometry" />
        </mxCell>
        <mxCell id="RX1dDcOHe3MtqewqTYPT-4" value="Frontend&lt;br&gt;&lt;br&gt;(3000)" style="whiteSpace=wrap;html=1;fillColor=#f5f5f5;fontColor=#333333;strokeColor=#666666;" parent="1" vertex="1">
          <mxGeometry x="-120" y="240" width="120" height="290" as="geometry" />
        </mxCell>
        <mxCell id="RX1dDcOHe3MtqewqTYPT-5" value="User API&lt;br&gt;(8080)" style="whiteSpace=wrap;html=1;aspect=fixed;fillColor=#f0a30a;strokeColor=#BD7000;fontColor=#000000;rounded=1;" parent="1" vertex="1">
          <mxGeometry x="210" y="200" width="80" height="80" as="geometry" />
        </mxCell>
        <mxCell id="RX1dDcOHe3MtqewqTYPT-7" value="News API&lt;br&gt;(8081)" style="whiteSpace=wrap;html=1;aspect=fixed;fillColor=#1ba1e2;strokeColor=#006EAF;fontColor=#ffffff;rounded=1;" parent="1" vertex="1">
          <mxGeometry x="210" y="344.5" width="80" height="80" as="geometry" />
        </mxCell>
        <mxCell id="RX1dDcOHe3MtqewqTYPT-8" value="News Manager&lt;br&gt;(8082)" style="whiteSpace=wrap;html=1;aspect=fixed;fillColor=#60a917;strokeColor=#2D7600;fontColor=#ffffff;rounded=1;" parent="1" vertex="1">
          <mxGeometry x="210" y="490" width="80" height="80" as="geometry" />
        </mxCell>
        <mxCell id="RX1dDcOHe3MtqewqTYPT-9" value="News Client Mail&lt;br&gt;(9090)" style="whiteSpace=wrap;html=1;aspect=fixed;fillColor=#e1d5e7;strokeColor=#9673a6;rounded=1;shadow=0;glass=0;" parent="1" vertex="1">
          <mxGeometry x="120" y="746.25" width="80" height="80" as="geometry" />
        </mxCell>
        <mxCell id="RX1dDcOHe3MtqewqTYPT-10" value="" style="endArrow=classic;html=1;rounded=0;exitX=1;exitY=0.5;exitDx=0;exitDy=0;" parent="1" source="RX1dDcOHe3MtqewqTYPT-5" target="RX1dDcOHe3MtqewqTYPT-1" edge="1">
          <mxGeometry width="50" height="50" relative="1" as="geometry">
            <mxPoint x="380" y="410" as="sourcePoint" />
            <mxPoint x="430" y="360" as="targetPoint" />
          </mxGeometry>
        </mxCell>
        <mxCell id="RX1dDcOHe3MtqewqTYPT-11" value="" style="endArrow=classic;html=1;rounded=0;entryX=0;entryY=0.5;entryDx=0;entryDy=0;entryPerimeter=0;" parent="1" source="RX1dDcOHe3MtqewqTYPT-7" target="RX1dDcOHe3MtqewqTYPT-2" edge="1">
          <mxGeometry width="50" height="50" relative="1" as="geometry">
            <mxPoint x="380" y="452.5" as="sourcePoint" />
            <mxPoint x="430" y="402.5" as="targetPoint" />
          </mxGeometry>
        </mxCell>
        <mxCell id="RX1dDcOHe3MtqewqTYPT-13" value="" style="endArrow=classic;html=1;rounded=0;exitX=0.5;exitY=1;exitDx=0;exitDy=0;dashed=1;dashPattern=8 8;" parent="1" source="RX1dDcOHe3MtqewqTYPT-8" target="Sk7vuej4KPGZEMky0W2_-1" edge="1">
          <mxGeometry width="50" height="50" relative="1" as="geometry">
            <mxPoint x="260" y="502.5" as="sourcePoint" />
            <mxPoint x="310" y="452.5" as="targetPoint" />
          </mxGeometry>
        </mxCell>
        <mxCell id="RX1dDcOHe3MtqewqTYPT-14" value="" style="endArrow=classic;html=1;rounded=0;entryX=0.638;entryY=-0.017;entryDx=0;entryDy=0;entryPerimeter=0;dashed=1;dashPattern=8 8;" parent="1" source="RX1dDcOHe3MtqewqTYPT-8" target="RX1dDcOHe3MtqewqTYPT-9" edge="1">
          <mxGeometry width="50" height="50" relative="1" as="geometry">
            <mxPoint x="140" y="432.5" as="sourcePoint" />
            <mxPoint x="190" y="382.5" as="targetPoint" />
          </mxGeometry>
        </mxCell>
        <mxCell id="Sk7vuej4KPGZEMky0W2_-1" value="News Client Discord&lt;br&gt;(9091)" style="whiteSpace=wrap;html=1;aspect=fixed;fillColor=#e1d5e7;strokeColor=#9673a6;rounded=1;shadow=0;glass=0;" vertex="1" parent="1">
          <mxGeometry x="210" y="746.25" width="80" height="80" as="geometry" />
        </mxCell>
        <mxCell id="Sk7vuej4KPGZEMky0W2_-2" value="News Client Telegram&lt;br&gt;(9092)" style="whiteSpace=wrap;html=1;aspect=fixed;fillColor=#e1d5e7;strokeColor=#9673a6;rounded=1;shadow=0;glass=0;" vertex="1" parent="1">
          <mxGeometry x="300" y="746.25" width="80" height="80" as="geometry" />
        </mxCell>
        <mxCell id="Sk7vuej4KPGZEMky0W2_-3" value="" style="endArrow=classic;html=1;rounded=0;entryX=0.5;entryY=1;entryDx=0;entryDy=0;entryPerimeter=0;" edge="1" parent="1" source="RX1dDcOHe3MtqewqTYPT-5" target="RX1dDcOHe3MtqewqTYPT-3">
          <mxGeometry width="50" height="50" relative="1" as="geometry">
            <mxPoint x="310" y="310" as="sourcePoint" />
            <mxPoint x="450" y="240" as="targetPoint" />
          </mxGeometry>
        </mxCell>
        <mxCell id="Sk7vuej4KPGZEMky0W2_-4" value="" style="endArrow=classic;html=1;rounded=0;entryX=0.5;entryY=0;entryDx=0;entryDy=0;dashed=1;dashPattern=8 8;" edge="1" parent="1" source="RX1dDcOHe3MtqewqTYPT-8" target="Sk7vuej4KPGZEMky0W2_-2">
          <mxGeometry width="50" height="50" relative="1" as="geometry">
            <mxPoint x="354" y="552.5" as="sourcePoint" />
            <mxPoint x="330" y="612.5" as="targetPoint" />
          </mxGeometry>
        </mxCell>
        <mxCell id="Sk7vuej4KPGZEMky0W2_-10" value="" style="endArrow=classic;html=1;rounded=0;exitX=1;exitY=0;exitDx=0;exitDy=0;" edge="1" parent="1" source="RX1dDcOHe3MtqewqTYPT-4" target="RX1dDcOHe3MtqewqTYPT-5">
          <mxGeometry width="50" height="50" relative="1" as="geometry">
            <mxPoint x="96" y="360" as="sourcePoint" />
            <mxPoint x="40" y="459" as="targetPoint" />
          </mxGeometry>
        </mxCell>
        <mxCell id="Sk7vuej4KPGZEMky0W2_-11" value="" style="endArrow=classic;html=1;rounded=0;exitX=1;exitY=1;exitDx=0;exitDy=0;" edge="1" parent="1" source="RX1dDcOHe3MtqewqTYPT-4" target="RX1dDcOHe3MtqewqTYPT-8">
          <mxGeometry width="50" height="50" relative="1" as="geometry">
            <mxPoint y="512.4999999999998" as="sourcePoint" />
            <mxPoint x="190" y="512" as="targetPoint" />
          </mxGeometry>
        </mxCell>
        <mxCell id="Sk7vuej4KPGZEMky0W2_-12" style="edgeStyle=orthogonalEdgeStyle;rounded=0;orthogonalLoop=1;jettySize=auto;html=1;exitX=0.5;exitY=1;exitDx=0;exitDy=0;" edge="1" parent="1">
          <mxGeometry relative="1" as="geometry">
            <mxPoint x="-60" y="512.4999999999998" as="sourcePoint" />
            <mxPoint x="-60" y="512.4999999999998" as="targetPoint" />
          </mxGeometry>
        </mxCell>
        <mxCell id="Sk7vuej4KPGZEMky0W2_-13" style="edgeStyle=orthogonalEdgeStyle;rounded=0;orthogonalLoop=1;jettySize=auto;html=1;exitX=0.5;exitY=1;exitDx=0;exitDy=0;" edge="1" parent="1">
          <mxGeometry relative="1" as="geometry">
            <mxPoint x="-60" y="512.4999999999998" as="sourcePoint" />
            <mxPoint x="-60" y="512.4999999999998" as="targetPoint" />
          </mxGeometry>
        </mxCell>
        <mxCell id="Sk7vuej4KPGZEMky0W2_-14" value="" style="endArrow=classic;html=1;rounded=0;exitX=1;exitY=0.5;exitDx=0;exitDy=0;" edge="1" parent="1" source="RX1dDcOHe3MtqewqTYPT-4" target="RX1dDcOHe3MtqewqTYPT-7">
          <mxGeometry width="50" height="50" relative="1" as="geometry">
            <mxPoint x="-10" y="398" as="sourcePoint" />
            <mxPoint x="210" y="405.5" as="targetPoint" />
          </mxGeometry>
        </mxCell>
        <mxCell id="Sk7vuej4KPGZEMky0W2_-15" value="" style="endArrow=classic;html=1;rounded=0;exitX=0.5;exitY=1;exitDx=0;exitDy=0;" edge="1" parent="1" source="RX1dDcOHe3MtqewqTYPT-7" target="RX1dDcOHe3MtqewqTYPT-8">
          <mxGeometry width="50" height="50" relative="1" as="geometry">
            <mxPoint x="300" y="492.5" as="sourcePoint" />
            <mxPoint x="440" y="492.5" as="targetPoint" />
          </mxGeometry>
        </mxCell>
        <mxCell id="Sk7vuej4KPGZEMky0W2_-17" value="Manage Auth &amp;amp; Tags" style="text;html=1;strokeColor=none;fillColor=none;align=center;verticalAlign=middle;whiteSpace=wrap;rounded=0;" vertex="1" parent="1">
          <mxGeometry x="40" y="210" width="120" height="30" as="geometry" />
        </mxCell>
        <mxCell id="Sk7vuej4KPGZEMky0W2_-18" value="Manage News" style="text;html=1;strokeColor=none;fillColor=none;align=center;verticalAlign=middle;whiteSpace=wrap;rounded=0;" vertex="1" parent="1">
          <mxGeometry x="40" y="355" width="120" height="30" as="geometry" />
        </mxCell>
        <mxCell id="Sk7vuej4KPGZEMky0W2_-19" value="Manage Channels" style="text;html=1;strokeColor=none;fillColor=none;align=center;verticalAlign=middle;whiteSpace=wrap;rounded=0;" vertex="1" parent="1">
          <mxGeometry x="40" y="500" width="120" height="30" as="geometry" />
        </mxCell>
        <mxCell id="Sk7vuej4KPGZEMky0W2_-20" value="Postgres User API&lt;br&gt;(5432)" style="shape=cylinder3;whiteSpace=wrap;html=1;boundedLbl=1;backgroundOutline=1;size=15;fillColor=#bac8d3;strokeColor=#23445d;" vertex="1" parent="1">
          <mxGeometry x="418.13" y="485" width="67.5" height="90" as="geometry" />
        </mxCell>
        <mxCell id="Sk7vuej4KPGZEMky0W2_-21" value="" style="endArrow=classic;html=1;rounded=0;" edge="1" parent="1" target="Sk7vuej4KPGZEMky0W2_-20" source="RX1dDcOHe3MtqewqTYPT-8">
          <mxGeometry width="50" height="50" relative="1" as="geometry">
            <mxPoint x="300" y="530" as="sourcePoint" />
            <mxPoint x="440" y="650" as="targetPoint" />
          </mxGeometry>
        </mxCell>
        <mxCell id="Sk7vuej4KPGZEMky0W2_-22" value="Deliver news" style="text;html=1;strokeColor=none;fillColor=none;align=center;verticalAlign=middle;whiteSpace=wrap;rounded=0;" vertex="1" parent="1">
          <mxGeometry x="230" y="440" width="120" height="30" as="geometry" />
        </mxCell>
        <mxCell id="Sk7vuej4KPGZEMky0W2_-23" value="Calls subscribed delivery clients" style="text;html=1;strokeColor=none;fillColor=none;align=center;verticalAlign=middle;whiteSpace=wrap;rounded=0;" vertex="1" parent="1">
          <mxGeometry x="310" y="650" width="126" height="30" as="geometry" />
        </mxCell>
        <mxCell id="Sk7vuej4KPGZEMky0W2_-28" value="Delivery Clients&lt;br&gt;&quot;Channels&quot;" style="rounded=1;whiteSpace=wrap;html=1;" vertex="1" parent="1">
          <mxGeometry x="418.13" y="720" width="120" height="60" as="geometry" />
        </mxCell>
        <mxCell id="Sk7vuej4KPGZEMky0W2_-29" value="Authenticate against LDAP, get LDAP groups for Tag creation" style="text;html=1;strokeColor=none;fillColor=none;align=center;verticalAlign=middle;whiteSpace=wrap;rounded=0;fontSize=11;" vertex="1" parent="1">
          <mxGeometry x="250" y="140" width="160" height="60" as="geometry" />
        </mxCell>
        <mxCell id="Sk7vuej4KPGZEMky0W2_-30" value="" style="shape=image;verticalLabelPosition=bottom;labelBackgroundColor=default;verticalAlign=top;aspect=fixed;imageAspect=0;image=https://upload.wikimedia.org/wikipedia/commons/thumb/9/9a/FH_Technikum_Wien_logo.svg/1280px-FH_Technikum_Wien_logo.svg.png;" vertex="1" parent="1">
          <mxGeometry x="330" y="-143.85" width="190" height="97.69" as="geometry" />
        </mxCell>
        <mxCell id="Sk7vuej4KPGZEMky0W2_-31" value="&lt;font face=&quot;Verdana&quot; style=&quot;&quot;&gt;&lt;span style=&quot;font-size: 27px;&quot;&gt;Overall architecture&lt;/span&gt;&lt;br&gt;&lt;font style=&quot;font-size: 20px;&quot;&gt;News-Center&lt;/font&gt;&lt;br&gt;&lt;/font&gt;" style="text;html=1;strokeColor=none;fillColor=none;align=left;verticalAlign=middle;whiteSpace=wrap;rounded=0;" vertex="1" parent="1">
          <mxGeometry x="-129" y="-120" width="299" height="30" as="geometry" />
        </mxCell>
        <mxCell id="Sk7vuej4KPGZEMky0W2_-38" value="" style="sketch=0;outlineConnect=0;fontColor=#232F3E;gradientColor=none;fillColor=#232F3D;strokeColor=none;dashed=0;verticalLabelPosition=bottom;verticalAlign=top;align=center;html=1;fontSize=12;fontStyle=0;aspect=fixed;pointerEvents=1;shape=mxgraph.aws4.user;" vertex="1" parent="1">
          <mxGeometry x="-89" y="720" width="78" height="78" as="geometry" />
        </mxCell>
        <mxCell id="Sk7vuej4KPGZEMky0W2_-39" value="" style="endArrow=classic;html=1;rounded=0;dashed=1;dashPattern=8 8;exitX=0.263;exitY=0.196;exitDx=0;exitDy=0;exitPerimeter=0;" edge="1" parent="1" source="Sk7vuej4KPGZEMky0W2_-24" target="Sk7vuej4KPGZEMky0W2_-38">
          <mxGeometry width="50" height="50" relative="1" as="geometry">
            <mxPoint x="-156" y="710" as="sourcePoint" />
            <mxPoint x="-220" y="885" as="targetPoint" />
            <Array as="points">
              <mxPoint x="70" y="640" />
              <mxPoint x="-50" y="640" />
            </Array>
          </mxGeometry>
        </mxCell>
        <mxCell id="Sk7vuej4KPGZEMky0W2_-40" value="User receives &lt;br&gt;news" style="text;html=1;strokeColor=none;fillColor=none;align=center;verticalAlign=middle;whiteSpace=wrap;rounded=0;" vertex="1" parent="1">
          <mxGeometry x="-40" y="606" width="130" height="30" as="geometry" />
        </mxCell>
        <mxCell id="Sk7vuej4KPGZEMky0W2_-41" value="" style="shape=image;verticalLabelPosition=bottom;labelBackgroundColor=default;verticalAlign=top;aspect=fixed;imageAspect=0;image=https://www.svgrepo.com/download/353655/discord-icon.svg;" vertex="1" parent="1">
          <mxGeometry x="-72.5" y="806" width="45" height="45" as="geometry" />
        </mxCell>
        <mxCell id="Sk7vuej4KPGZEMky0W2_-42" value="" style="shape=image;verticalLabelPosition=bottom;labelBackgroundColor=default;verticalAlign=top;aspect=fixed;imageAspect=0;image=https://upload.wikimedia.org/wikipedia/commons/thumb/8/82/Telegram_logo.svg/2048px-Telegram_logo.svg.png;" vertex="1" parent="1">
          <mxGeometry x="-19" y="808.5" width="40" height="40" as="geometry" />
        </mxCell>
        <mxCell id="Sk7vuej4KPGZEMky0W2_-43" value="" style="shape=image;verticalLabelPosition=bottom;labelBackgroundColor=default;verticalAlign=top;aspect=fixed;imageAspect=0;image=https://upload.wikimedia.org/wikipedia/commons/thumb/7/7e/Gmail_icon_%282020%29.svg/1280px-Gmail_icon_%282020%29.svg.png;" vertex="1" parent="1">
          <mxGeometry x="-129" y="813.5" width="40" height="30" as="geometry" />
        </mxCell>
      </root>
    </mxGraphModel>
  </diagram>
</mxfile>
